<svg width="904" height="927" viewBox="0 0 904 927" fill="none" xmlns="http://www.w3.org/2000/svg">
<path d="M14.0963 885.818H34.5694V892.027H6.46078V833.545H14.0963V885.818ZM62.7317 892.783C58.4245 892.783 54.5089 891.804 50.9848 889.846C47.5167 887.888 44.7758 885.119 42.762 881.539C40.8042 877.903 39.8253 873.708 39.8253 868.953C39.8253 864.254 40.8322 860.115 42.8459 856.535C44.9156 852.899 47.7125 850.13 51.2366 848.228C54.7606 846.27 58.7042 845.292 63.0673 845.292C67.4305 845.292 71.3741 846.27 74.8981 848.228C78.4222 850.13 81.1911 852.871 83.2048 856.451C85.2745 860.031 86.3094 864.198 86.3094 868.953C86.3094 873.708 85.2466 877.903 83.1209 881.539C81.0513 885.119 78.2264 887.888 74.6464 889.846C71.0664 891.804 67.0948 892.783 62.7317 892.783ZM62.7317 886.07C65.4727 886.07 68.0458 885.427 70.4511 884.14C72.8564 882.854 74.7863 880.924 76.2406 878.351C77.7509 875.777 78.5061 872.645 78.5061 868.953C78.5061 865.261 77.7789 862.129 76.3245 859.556C74.8702 856.982 72.9683 855.081 70.6189 853.85C68.2695 852.563 65.7244 851.92 62.9834 851.92C60.1866 851.92 57.6134 852.563 55.2641 853.85C52.9706 855.081 51.1247 856.982 49.7263 859.556C48.3278 862.129 47.6286 865.261 47.6286 868.953C47.6286 872.701 48.2998 875.861 49.6423 878.435C51.0408 881.008 52.8867 882.937 55.1802 884.224C57.4736 885.455 59.9908 886.07 62.7317 886.07ZM103.984 853.514C105.327 850.885 107.228 848.844 109.69 847.389C112.207 845.935 115.256 845.208 118.836 845.208V853.095H116.822C108.263 853.095 103.984 857.738 103.984 867.023V892.027H96.3486V846.047H103.984V853.514ZM124.797 868.869C124.797 864.17 125.748 860.059 127.65 856.535C129.551 852.955 132.153 850.186 135.453 848.228C138.809 846.27 142.557 845.292 146.696 845.292C150.276 845.292 153.605 846.131 156.681 847.809C159.758 849.431 162.107 851.585 163.729 854.27V829.937H171.449V892.027H163.729V883.385C162.219 886.126 159.981 888.391 157.017 890.181C154.052 891.915 150.584 892.783 146.612 892.783C142.529 892.783 138.809 891.776 135.453 889.762C132.153 887.748 129.551 884.923 127.65 881.287C125.748 877.651 124.797 873.512 124.797 868.869ZM163.729 868.953C163.729 865.485 163.03 862.464 161.632 859.891C160.233 857.318 158.331 855.36 155.926 854.018C153.577 852.619 150.976 851.92 148.123 851.92C145.27 851.92 142.669 852.591 140.319 853.934C137.97 855.276 136.096 857.234 134.698 859.807C133.299 862.38 132.6 865.401 132.6 868.869C132.6 872.393 133.299 875.47 134.698 878.099C136.096 880.672 137.97 882.658 140.319 884.056C142.669 885.399 145.27 886.07 148.123 886.07C150.976 886.07 153.577 885.399 155.926 884.056C158.331 882.658 160.233 880.672 161.632 878.099C163.03 875.47 163.729 872.421 163.729 868.953ZM214.357 833.545V892.027H206.721V833.545H214.357ZM249.773 845.208C255.367 845.208 259.898 846.914 263.366 850.326C266.834 853.682 268.568 858.549 268.568 864.926V892.027H261.017V866.016C261.017 861.43 259.87 857.933 257.576 855.528C255.283 853.067 252.151 851.836 248.179 851.836C244.151 851.836 240.935 853.095 238.53 855.612C236.18 858.129 235.006 861.793 235.006 866.604V892.027H227.37V846.047H235.006V852.591C236.516 850.242 238.558 848.424 241.131 847.137C243.76 845.851 246.641 845.208 249.773 845.208ZM290.354 852.34V879.441C290.354 881.679 290.83 883.273 291.781 884.224C292.732 885.119 294.382 885.567 296.731 885.567H302.353V892.027H295.473C291.221 892.027 288.033 891.048 285.907 889.091C283.782 887.133 282.719 883.916 282.719 879.441V852.34H276.761V846.047H282.719V834.468H290.354V846.047H302.353V852.34H290.354ZM353.557 867.275C353.557 868.729 353.473 870.268 353.306 871.89H316.555C316.834 876.421 318.373 879.973 321.17 882.546C324.022 885.063 327.462 886.322 331.49 886.322C334.79 886.322 337.531 885.567 339.713 884.056C341.95 882.49 343.517 880.42 344.412 877.847H352.634C351.404 882.266 348.942 885.874 345.251 888.671C341.559 891.412 336.972 892.783 331.49 892.783C327.127 892.783 323.211 891.804 319.743 889.846C316.331 887.888 313.646 885.119 311.688 881.539C309.73 877.903 308.751 873.708 308.751 868.953C308.751 864.198 309.702 860.031 311.604 856.451C313.506 852.871 316.163 850.13 319.575 848.228C323.043 846.27 327.015 845.292 331.49 845.292C335.853 845.292 339.713 846.242 343.069 848.144C346.425 850.046 348.998 852.675 350.788 856.032C352.634 859.332 353.557 863.08 353.557 867.275ZM345.67 865.681C345.67 862.772 345.027 860.283 343.74 858.213C342.454 856.087 340.692 854.493 338.454 853.43C336.273 852.312 333.839 851.752 331.154 851.752C327.295 851.752 323.994 852.983 321.253 855.444C318.568 857.905 317.03 861.318 316.639 865.681H345.67ZM371.271 853.514C372.614 850.885 374.516 848.844 376.977 847.389C379.494 845.935 382.543 845.208 386.123 845.208V853.095H384.109C375.551 853.095 371.271 857.738 371.271 867.023V892.027H363.636V846.047H371.271V853.514ZM417.34 845.208C422.934 845.208 427.465 846.914 430.933 850.326C434.401 853.682 436.135 858.549 436.135 864.926V892.027H428.583V866.016C428.583 861.43 427.437 857.933 425.143 855.528C422.85 853.067 419.717 851.836 415.746 851.836C411.718 851.836 408.502 853.095 406.096 855.612C403.747 858.129 402.572 861.793 402.572 866.604V892.027H394.937V846.047H402.572V852.591C404.083 850.242 406.124 848.424 408.698 847.137C411.327 845.851 414.207 845.208 417.34 845.208ZM490.561 867.275C490.561 868.729 490.477 870.268 490.309 871.89H453.558C453.838 876.421 455.376 879.973 458.173 882.546C461.026 885.063 464.466 886.322 468.493 886.322C471.793 886.322 474.534 885.567 476.716 884.056C478.953 882.49 480.52 880.42 481.415 877.847H489.638C488.407 882.266 485.946 885.874 482.254 888.671C478.562 891.412 473.975 892.783 468.493 892.783C464.13 892.783 460.214 891.804 456.746 889.846C453.334 887.888 450.649 885.119 448.691 881.539C446.733 877.903 445.755 873.708 445.755 868.953C445.755 864.198 446.706 860.031 448.607 856.451C450.509 852.871 453.166 850.13 456.578 848.228C460.047 846.27 464.018 845.292 468.493 845.292C472.856 845.292 476.716 846.242 480.072 848.144C483.428 850.046 486.002 852.675 487.792 856.032C489.638 859.332 490.561 863.08 490.561 867.275ZM482.673 865.681C482.673 862.772 482.03 860.283 480.743 858.213C479.457 856.087 477.695 854.493 475.457 853.43C473.276 852.312 470.843 851.752 468.158 851.752C464.298 851.752 460.998 852.983 458.257 855.444C455.572 857.905 454.033 861.318 453.642 865.681H482.673ZM509.953 852.34V879.441C509.953 881.679 510.428 883.273 511.379 884.224C512.33 885.119 513.98 885.567 516.33 885.567H521.951V892.027H515.071C510.82 892.027 507.631 891.048 505.506 889.091C503.38 887.133 502.317 883.916 502.317 879.441V852.34H496.36V846.047H502.317V834.468H509.953V846.047H521.951V852.34H509.953ZM572.115 892.615C568.256 892.615 564.788 891.943 561.711 890.601C558.69 889.202 556.313 887.301 554.579 884.895C552.845 882.434 551.95 879.609 551.894 876.421H560.033C560.313 879.162 561.431 881.483 563.389 883.385C565.403 885.231 568.312 886.154 572.115 886.154C575.751 886.154 578.604 885.259 580.674 883.469C582.799 881.623 583.862 879.274 583.862 876.421C583.862 874.183 583.247 872.365 582.016 870.967C580.786 869.568 579.247 868.506 577.401 867.778C575.556 867.051 573.066 866.268 569.934 865.429C566.074 864.422 562.97 863.415 560.62 862.408C558.327 861.402 556.341 859.835 554.663 857.71C553.041 855.528 552.23 852.619 552.23 848.983C552.23 845.795 553.041 842.97 554.663 840.509C556.285 838.048 558.551 836.146 561.459 834.803C564.424 833.461 567.808 832.79 571.612 832.79C577.094 832.79 581.569 834.16 585.037 836.901C588.561 839.642 590.547 843.278 590.994 847.809H582.604C582.324 845.571 581.149 843.613 579.08 841.935C577.01 840.201 574.269 839.334 570.857 839.334C567.668 839.334 565.067 840.173 563.054 841.851C561.04 843.474 560.033 845.767 560.033 848.732C560.033 850.857 560.62 852.591 561.795 853.934C563.026 855.276 564.508 856.311 566.242 857.038C568.032 857.71 570.521 858.493 573.71 859.388C577.569 860.451 580.674 861.513 583.023 862.576C585.373 863.583 587.386 865.177 589.064 867.359C590.743 869.485 591.582 872.393 591.582 876.085C591.582 878.938 590.826 881.623 589.316 884.14C587.806 886.657 585.568 888.699 582.604 890.265C579.639 891.832 576.143 892.615 572.115 892.615ZM644.771 867.275C644.771 868.729 644.687 870.268 644.519 871.89H607.768C608.048 876.421 609.586 879.973 612.383 882.546C615.236 885.063 618.676 886.322 622.704 886.322C626.004 886.322 628.745 885.567 630.926 884.056C633.164 882.49 634.73 880.42 635.625 877.847H643.848C642.617 882.266 640.156 885.874 636.464 888.671C632.772 891.412 628.186 892.783 622.704 892.783C618.341 892.783 614.425 891.804 610.957 889.846C607.545 887.888 604.86 885.119 602.902 881.539C600.944 877.903 599.965 873.708 599.965 868.953C599.965 864.198 600.916 860.031 602.818 856.451C604.72 852.871 607.377 850.13 610.789 848.228C614.257 846.27 618.229 845.292 622.704 845.292C627.067 845.292 630.926 846.242 634.283 848.144C637.639 850.046 640.212 852.675 642.002 856.032C643.848 859.332 644.771 863.08 644.771 867.275ZM636.884 865.681C636.884 862.772 636.241 860.283 634.954 858.213C633.667 856.087 631.905 854.493 629.668 853.43C627.486 852.312 625.053 851.752 622.368 851.752C618.508 851.752 615.208 852.983 612.467 855.444C609.782 857.905 608.244 861.318 607.852 865.681H636.884ZM662.485 853.514C663.828 850.885 665.729 848.844 668.191 847.389C670.708 845.935 673.756 845.208 677.336 845.208V853.095H675.323C666.764 853.095 662.485 857.738 662.485 867.023V892.027H654.85V846.047H662.485V853.514ZM703.267 884.979L717.532 846.047H725.67L707.631 892.027H698.737L680.697 846.047H688.92L703.267 884.979ZM737.128 838.579C735.673 838.579 734.443 838.076 733.436 837.069C732.429 836.062 731.925 834.831 731.925 833.377C731.925 831.922 732.429 830.692 733.436 829.685C734.443 828.678 735.673 828.175 737.128 828.175C738.526 828.175 739.701 828.678 740.652 829.685C741.658 830.692 742.162 831.922 742.162 833.377C742.162 834.831 741.658 836.062 740.652 837.069C739.701 838.076 738.526 838.579 737.128 838.579ZM740.819 846.047V892.027H733.184V846.047H740.819ZM750.98 868.953C750.98 864.198 751.931 860.059 753.833 856.535C755.735 852.955 758.364 850.186 761.72 848.228C765.132 846.27 769.02 845.292 773.383 845.292C779.033 845.292 783.675 846.662 787.311 849.403C791.003 852.144 793.436 855.948 794.611 860.814H786.388C785.605 858.017 784.067 855.808 781.774 854.186C779.536 852.563 776.739 851.752 773.383 851.752C769.02 851.752 765.496 853.263 762.811 856.283C760.126 859.248 758.783 863.471 758.783 868.953C758.783 874.491 760.126 878.77 762.811 881.791C765.496 884.811 769.02 886.322 773.383 886.322C776.739 886.322 779.536 885.539 781.774 883.972C784.011 882.406 785.549 880.169 786.388 877.26H794.611C793.381 881.959 790.919 885.734 787.227 888.587C783.536 891.384 778.921 892.783 773.383 892.783C769.02 892.783 765.132 891.804 761.72 889.846C758.364 887.888 755.735 885.119 753.833 881.539C751.931 877.959 750.98 873.764 750.98 868.953ZM846.752 867.275C846.752 868.729 846.669 870.268 846.501 871.89H809.75C810.029 876.421 811.568 879.973 814.365 882.546C817.217 885.063 820.658 886.322 824.685 886.322C827.985 886.322 830.726 885.567 832.908 884.056C835.145 882.49 836.712 880.42 837.607 877.847H845.829C844.599 882.266 842.138 885.874 838.446 888.671C834.754 891.412 830.167 892.783 824.685 892.783C820.322 892.783 816.406 891.804 812.938 889.846C809.526 887.888 806.841 885.119 804.883 881.539C802.925 877.903 801.946 873.708 801.946 868.953C801.946 864.198 802.897 860.031 804.799 856.451C806.701 852.871 809.358 850.13 812.77 848.228C816.239 846.27 820.21 845.292 824.685 845.292C829.048 845.292 832.908 846.242 836.264 848.144C839.62 850.046 842.194 852.675 843.984 856.032C845.829 859.332 846.752 863.08 846.752 867.275ZM838.865 865.681C838.865 862.772 838.222 860.283 836.935 858.213C835.649 856.087 833.887 854.493 831.649 853.43C829.468 852.312 827.034 851.752 824.349 851.752C820.49 851.752 817.189 852.983 814.449 855.444C811.764 857.905 810.225 861.318 809.834 865.681H838.865ZM873.109 892.783C869.585 892.783 866.424 892.195 863.627 891.02C860.83 889.79 858.621 888.112 856.999 885.986C855.377 883.805 854.482 881.315 854.314 878.518H862.201C862.425 880.812 863.488 882.686 865.389 884.14C867.347 885.595 869.892 886.322 873.025 886.322C875.934 886.322 878.227 885.678 879.905 884.392C881.583 883.105 882.422 881.483 882.422 879.525C882.422 877.512 881.527 876.029 879.737 875.078C877.947 874.071 875.178 873.092 871.431 872.142C868.018 871.247 865.222 870.352 863.04 869.457C860.914 868.506 859.068 867.135 857.502 865.345C855.992 863.499 855.237 861.094 855.237 858.129C855.237 855.78 855.936 853.626 857.334 851.668C858.733 849.711 860.719 848.172 863.292 847.054C865.865 845.879 868.802 845.292 872.102 845.292C877.192 845.292 881.304 846.578 884.436 849.151C887.569 851.724 889.247 855.248 889.47 859.723H881.835C881.667 857.318 880.688 855.388 878.898 853.934C877.164 852.48 874.815 851.752 871.85 851.752C869.109 851.752 866.928 852.34 865.305 853.514C863.683 854.689 862.872 856.227 862.872 858.129C862.872 859.64 863.348 860.898 864.299 861.905C865.305 862.856 866.536 863.639 867.99 864.254C869.501 864.814 871.57 865.457 874.2 866.184C877.5 867.079 880.185 867.974 882.255 868.869C884.324 869.708 886.086 870.995 887.541 872.729C889.051 874.463 889.834 876.728 889.89 879.525C889.89 882.042 889.191 884.308 887.792 886.322C886.394 888.335 884.408 889.93 881.835 891.104C879.318 892.223 876.409 892.783 873.109 892.783Z" fill="#EAC02E"/>
<path d="M425 497.742C414.754 504.549 408 516.193 408 529.415C408 550.402 425.013 567.415 446 567.415C461.675 567.415 475.131 557.923 480.939 544.375H507.213C500.498 571.947 475.639 592.415 446 592.415C411.206 592.415 383 564.209 383 529.415C383 501.984 400.531 478.649 425 470V497.742Z" fill="url(#paint0_linear_1082_3682)"/>
<circle cx="695" cy="79" r="18" fill="#0B4D9B"/>
<circle cx="207" cy="79" r="18" fill="#0B4D9B"/>
<circle cx="451.5" cy="27.5" r="27.5" fill="#0B4D9B"/>
<path d="M485.539 424.061C514.97 433.195 539.247 454.037 552.932 481.14L531.205 493.608C519.897 470.322 498.622 452.771 472.926 446.503L485.436 424.245L485.539 424.061ZM452.5 374C513.191 374 565.863 408.329 592.161 458.628L570.455 471.084C548.489 428.285 503.915 399 452.5 399C400.653 399 355.763 428.779 333.997 472.166L312.346 459.574C338.476 408.76 391.428 374 452.5 374ZM452.5 320C533.228 320 603.392 365.229 639.035 431.729L617.336 444.182C586.017 385.182 523.952 345 452.5 345C380.728 345 318.426 385.543 287.244 444.976L265.61 432.394C301.141 365.531 371.503 320 452.5 320ZM452 276C549.174 276 633.702 330.142 677.064 409.905L655.369 422.355C616.328 350.094 539.898 301 452 301C364.052 301 287.583 350.149 248.562 422.479L226.937 409.902C270.299 330.14 354.827 276 452 276Z" fill="#0B4D9B"/>
<path d="M600 424.651C609.833 421.318 630.7 418.452 635.5 433.651L486.5 520.152H451V484.652L483.5 427.652C495 432.652 520.4 446.852 530 463.652L600 424.651ZM474.02 494.946L511.829 470.093C510.735 466.849 499.955 457.923 494.702 453.866L474.02 494.946Z" fill="#0B4D9B"/>
<path d="M487.898 421.164C532.188 436.458 564 478.512 564 527.999C564 590.407 513.408 640.999 451 640.999C445.914 640.999 440.908 640.66 436 640.009V614.724C440.875 615.561 445.886 615.999 451 615.999C499.601 615.999 539 576.6 539 527.999C539 487.31 511.385 453.072 473.875 443.002C474.084 443.001 474.292 442.999 474.5 442.999L487.898 421.164Z" fill="#0B4D9B"/>
<path d="M362.019 515.715C361.38 519.992 361.047 524.369 361.047 528.824C361.047 565.839 383.9 597.514 416.266 610.514L402.66 631.894C366.614 615.646 340.624 581.046 336.594 540H290V516H336.769V515.998L355.547 516C357.563 516 359.725 515.898 362.019 515.715Z" fill="url(#paint1_linear_1082_3682)"/>
<path d="M520.5 124.5L505.5 139.5L553 212L581 142.5L602.5 209L671 140.5L662.5 130.5L695.5 97.5V114L681.5 128.5L695.5 142.5V394C673.667 349.666 594.1 260.198 450.5 256.998C306.9 253.798 228.667 346.998 207.5 393.998L207 142.5L221.5 127.5L207 113.5V96.5L241 131L232 139.5L301 210L322 142.5L349.5 212L396.5 139.5L383.5 124.5L450 55L520.5 124.5ZM424 117.871L450.87 144.741L477.74 117.871L450.87 91.001L424 117.871Z" fill="url(#paint2_linear_1082_3682)"/>
<path d="M311.386 268.215L310.336 266.083C312.258 265.1 313.363 264.332 313.652 263.778C313.979 263.212 313.956 262.335 313.582 261.148L304.709 232.942C304.335 231.754 303.852 231.022 303.26 230.746C302.706 230.457 301.36 230.459 299.222 230.753L298.862 228.404L312.937 223.977L313.871 226.145L310.526 227.955C309.809 228.349 309.582 228.967 309.847 229.81L320.058 262.268L325.153 260.602C329.38 259.188 331.827 258.271 332.494 257.85C333.047 257.466 333.192 254.18 332.928 247.991L336.178 247.285C336.421 247.924 336.862 249.258 337.501 251.288C338.127 253.279 338.748 255.988 339.363 259.414L311.386 268.215Z" fill="white"/>
<path d="M408.578 243.503C402.522 243.793 397.761 242.153 394.294 238.581C390.824 234.969 388.934 229.915 388.622 223.418C388.309 216.882 389.801 211.544 393.1 207.407C396.396 203.229 401.072 200.995 407.128 200.705C413.223 200.412 418.004 202.032 421.469 205.564C424.933 209.055 426.821 214.069 427.135 220.606C427.446 227.103 425.956 232.48 422.663 236.738C419.368 240.955 414.673 243.21 408.578 243.503ZM409.267 240.274C411.433 240.17 413.293 239.579 414.849 238.499C416.445 237.418 417.662 235.973 418.5 234.164C420.061 230.673 420.717 226.34 420.469 221.167C420.221 215.994 418.873 211.778 416.426 208.519C414.018 205.258 410.709 203.728 406.499 203.93C404.333 204.034 402.452 204.627 400.856 205.708C399.298 206.748 398.119 208.151 397.32 209.918C395.715 213.331 395.037 217.624 395.285 222.797C395.531 227.93 396.861 232.187 399.274 235.569C401.685 238.91 405.016 240.478 409.267 240.274Z" fill="white"/>
<path d="M482.615 240.911L482.798 238.541C484.952 238.674 486.295 238.575 486.825 238.246C487.395 237.925 487.821 237.159 488.105 235.947L494.834 207.154C495.117 205.942 495.075 205.066 494.706 204.526C494.377 203.996 493.217 203.312 491.227 202.476L492.113 200.271L508.416 204.082C512.599 205.059 515.506 206.646 517.137 208.841C518.768 211.036 519.241 213.6 518.556 216.532C517.87 219.464 516.47 221.838 514.356 223.652C512.25 225.428 509.637 226.466 506.515 226.768L506.447 227.061C506.81 227.269 507.14 227.8 507.435 228.653L512.798 243.017C513.184 244.014 513.614 244.733 514.088 245.174C514.601 245.624 515.587 246.081 517.045 246.545L516.159 248.75L507.832 246.804L500.387 226.263L496.575 225.372L493.464 238.684C493.263 239.544 493.535 240.144 494.28 240.483L497.341 241.94L496.572 244.173L482.615 240.911ZM497.274 222.381L500.5 223.135C503.588 223.857 506.07 223.736 507.944 222.772C509.867 221.779 511.248 219.483 512.089 215.887C513.222 211.039 511.15 207.998 505.872 206.765L502.353 205.942C501.571 205.76 501.071 206.137 500.851 207.076L497.274 222.381Z" fill="white"/>
<path d="M567.154 261.742L567.956 259.506C569.999 260.203 571.32 260.463 571.918 260.285C572.552 260.127 573.166 259.501 573.76 258.407L587.863 232.417C588.456 231.323 588.647 230.467 588.434 229.849C588.256 229.251 587.319 228.285 585.621 226.952L587.059 225.06L603.626 234.051C606.661 235.697 609.022 237.618 610.709 239.813C612.415 241.972 613.426 244.233 613.742 246.597C614.38 251.146 613.454 255.714 610.965 260.301C608.227 265.347 604.502 269.013 599.79 271.298C597.415 272.476 594.712 272.996 591.68 272.859C588.703 272.705 585.662 271.786 582.557 270.101L567.154 261.742ZM578.665 261.616C578.243 262.393 578.365 263.052 579.029 263.596C581.231 265.43 582.968 266.692 584.238 267.381C588.155 269.507 591.858 269.712 595.347 267.997C598.836 266.281 601.844 263.094 604.371 258.436C605.961 255.507 606.951 252.756 607.343 250.182C607.77 247.628 607.655 245.441 606.997 243.622C605.746 240.203 603.71 237.727 600.887 236.195L594.376 232.663L578.665 261.616Z" fill="white"/>
<path d="M28.0103 749.29C26.2068 749.29 24.8132 748.716 23.8295 747.568C22.7911 746.421 22.272 744.918 22.272 743.06C22.272 741.201 22.7911 739.699 23.8295 738.551C24.8132 737.403 26.2068 736.829 28.0103 736.829C29.8138 736.829 31.2347 737.403 32.2731 738.551C33.2568 739.644 33.7486 741.147 33.7486 743.06C33.7486 745.027 33.2295 746.557 32.1911 747.65C31.1527 748.743 29.7591 749.29 28.0103 749.29ZM43.094 749.29C41.3451 749.29 39.9515 748.743 38.9132 747.65C37.8748 746.503 37.3556 744.972 37.3556 743.06C37.3556 741.147 37.8748 739.644 38.9132 738.551C39.9515 737.403 41.3451 736.829 43.094 736.829C44.8974 736.829 46.291 737.376 47.2747 738.469C48.3131 739.562 48.8323 741.092 48.8323 743.06C48.8323 744.972 48.2858 746.503 47.1928 747.65C46.1544 748.743 44.7881 749.29 43.094 749.29ZM21.9697 785C16.8325 785 12.761 783.524 9.75519 780.573C6.80404 777.622 5.32846 773.523 5.32846 768.277C5.32846 766.801 5.43777 765.326 5.65637 763.85C5.92962 762.32 6.28485 760.844 6.72206 759.423C7.15927 758.002 7.65113 756.745 8.19764 755.652H20.4121C20.0296 757.347 19.7017 759.068 19.4284 760.817C19.2098 762.566 19.1005 764.315 19.1005 766.063C19.1005 768.577 19.7836 770.545 21.1499 771.966C22.5162 773.332 24.429 774.015 26.8882 774.015H52.7108V744.094H66.5648V774.015H77.1398C77.413 774.015 77.5496 774.124 77.5496 774.343V784.59C77.5496 784.863 77.413 785 77.1398 785H21.9697ZM91.1846 733.536C89.3811 733.536 87.9329 732.962 86.8399 731.814C85.7468 730.612 85.2003 729.027 85.2003 727.06C85.2003 725.037 85.7195 723.48 86.7579 722.387C87.7963 721.239 89.2718 720.665 91.1846 720.665C93.0427 720.665 94.491 721.239 95.5294 722.387C96.5677 723.48 97.0869 725.037 97.0869 727.06C97.0869 729.082 96.5404 730.667 95.4474 731.814C94.409 732.962 92.9881 733.536 91.1846 733.536ZM76.2829 785C76.0096 785 75.873 784.863 75.873 784.59V774.343C75.873 774.124 76.0096 774.015 76.2829 774.015H86.3659V744.094H100.22V785H76.2829ZM139.246 785V786.066C139.246 789.891 138.427 793.252 136.787 796.149C135.202 799.1 132.962 801.395 130.065 803.035C127.223 804.674 123.862 805.494 119.982 805.494C117.359 805.494 114.79 805.139 112.276 804.428C109.762 803.718 107.084 802.406 104.243 800.494L109.489 790.738C110.965 791.613 112.358 792.241 113.67 792.624C114.981 793.061 116.32 793.28 117.687 793.28C119.927 793.28 121.731 792.487 123.097 790.902C124.518 789.372 125.229 787.459 125.229 785.164V744.094H139.246V774.015H150.067C150.341 774.015 150.477 774.124 150.477 774.343V784.59C150.477 784.863 150.341 785 150.067 785H139.246ZM159.301 730.29C157.497 730.29 156.103 729.716 155.12 728.568C154.081 727.421 153.562 725.918 153.562 724.06C153.562 722.201 154.081 720.699 155.12 719.551C156.103 718.403 157.497 717.829 159.301 717.829C161.104 717.829 162.525 718.403 163.563 719.551C164.547 720.644 165.039 722.147 165.039 724.06C165.039 726.027 164.52 727.557 163.481 728.65C162.443 729.743 161.049 730.29 159.301 730.29ZM174.384 730.29C172.635 730.29 171.242 729.743 170.203 728.65C169.165 727.503 168.646 725.972 168.646 724.06C168.646 722.147 169.165 720.644 170.203 719.551C171.242 718.403 172.635 717.829 174.384 717.829C176.188 717.829 177.581 718.376 178.565 719.469C179.603 720.562 180.123 722.092 180.123 724.06C180.123 725.972 179.576 727.503 178.483 728.65C177.445 729.743 176.078 730.29 174.384 730.29ZM149.213 785C148.94 785 148.803 784.863 148.803 784.59V774.343C148.803 774.124 148.94 774.015 149.213 774.015H161.755V744.094H175.609V774.015H187.906C188.179 774.015 188.316 774.124 188.316 774.343V784.59C188.316 784.863 188.179 785 187.906 785H149.213ZM201.981 733.536C200.177 733.536 198.729 732.962 197.636 731.814C196.543 730.612 195.997 729.027 195.997 727.06C195.997 725.037 196.516 723.48 197.554 722.387C198.592 721.239 200.068 720.665 201.981 720.665C203.839 720.665 205.287 721.239 206.326 722.387C207.364 723.48 207.883 725.037 207.883 727.06C207.883 729.082 207.337 730.667 206.244 731.814C205.205 732.962 203.784 733.536 201.981 733.536ZM187.079 785C186.806 785 186.669 784.863 186.669 784.59V774.343C186.669 774.124 186.806 774.015 187.079 774.015H197.162V744.094H211.016V785H187.079ZM227.782 805.658L232.7 804.92C231.498 804.319 230.541 803.527 229.831 802.543C229.121 801.559 228.765 800.439 228.765 799.182C228.765 796.887 229.612 795.028 231.307 793.608C232.946 792.187 235.187 791.476 238.029 791.476C239.45 791.476 240.761 791.64 241.963 791.968C243.166 792.296 244.231 792.733 245.161 793.28L243.357 797.624C242.537 797.242 241.745 796.941 240.98 796.723C240.215 796.559 239.504 796.477 238.848 796.477C237.701 796.477 236.772 796.832 236.061 797.542C235.351 798.307 234.995 799.237 234.995 800.33C234.995 801.149 235.214 801.86 235.651 802.461C236.034 803.062 236.635 803.581 237.455 804.019C238.548 803.8 239.559 803.609 240.488 803.445C241.472 803.335 242.373 803.226 243.193 803.117C244.068 803.007 244.86 802.953 245.57 802.953V808.199C244.477 808.309 243.029 808.445 241.226 808.609C239.477 808.828 237.673 809.046 235.815 809.265C233.957 809.484 232.29 809.675 230.815 809.839C229.339 810.057 228.328 810.221 227.782 810.331V805.658ZM235.697 775.245L224.794 733.765H239.304L249.141 775.327L235.697 775.245ZM249.385 774.015C251.79 774.015 253.566 773.277 254.713 771.802C255.861 770.326 256.435 767.894 256.435 764.506V722.698H270.371V765.49C270.371 771.392 268.759 776.119 265.534 779.672C262.365 783.224 257.91 785 252.172 785H221.759V774.015H249.385ZM285.829 722.698H299.683V785H285.829V722.698ZM361.92 744.29C360.116 744.29 358.723 743.716 357.739 742.568C356.701 741.421 356.182 739.918 356.182 738.06C356.182 736.201 356.701 734.699 357.739 733.551C358.723 732.403 360.116 731.829 361.92 731.829C363.723 731.829 365.144 732.403 366.183 733.551C367.166 734.644 367.658 736.147 367.658 738.06C367.658 740.027 367.139 741.557 366.101 742.65C365.062 743.743 363.669 744.29 361.92 744.29ZM377.004 744.29C375.255 744.29 373.861 743.743 372.823 742.65C371.784 741.503 371.265 739.972 371.265 738.06C371.265 736.147 371.784 734.644 372.823 733.551C373.861 732.403 375.255 731.829 377.004 731.829C378.807 731.829 380.201 732.376 381.184 733.469C382.223 734.562 382.742 736.092 382.742 738.06C382.742 739.972 382.195 741.503 381.102 742.65C380.064 743.743 378.698 744.29 377.004 744.29ZM357.721 785C352.583 785 348.512 783.524 345.506 780.573C342.555 777.622 341.079 773.523 341.079 768.277C341.079 766.801 341.189 765.326 341.407 763.85C341.68 762.32 342.036 760.844 342.473 759.423C342.91 758.002 343.402 756.745 343.948 755.652H356.163C355.78 757.347 355.453 759.068 355.179 760.817C354.961 762.566 354.851 764.315 354.851 766.063C354.851 768.577 355.534 770.545 356.901 771.966C358.322 773.332 360.234 774.015 362.639 774.015H388.462V744.094H402.316V785H357.721ZM441.456 774.015C441.729 774.015 441.866 774.124 441.866 774.343V784.59C441.866 784.863 441.729 785 441.456 785H417.519V722.698H431.373V774.015H441.456ZM440.613 785C440.34 785 440.203 784.863 440.203 784.59V774.343C440.203 774.124 440.34 774.015 440.613 774.015H450.205C449.439 772.54 448.811 770.9 448.319 769.097C447.827 767.293 447.581 765.326 447.581 763.194C447.581 760.899 447.937 758.385 448.647 755.652C449.357 752.92 450.423 750.488 451.844 748.357C454.577 746.772 457.391 745.569 460.288 744.75C463.239 743.93 465.999 743.52 468.567 743.52C470.589 743.52 472.475 743.739 474.224 744.176C476.027 744.558 477.721 745.132 479.306 745.897C482.531 747.537 485.045 749.887 486.848 752.947C488.651 755.953 489.553 759.396 489.553 763.276C489.553 765.408 489.28 767.457 488.733 769.424C488.187 771.337 487.34 773.223 486.192 775.081C484.225 778.087 481.438 780.491 477.831 782.295C474.224 784.098 470.125 785 465.534 785H440.613ZM460.862 764.67C460.862 766.2 461.025 767.758 461.353 769.343C461.736 770.927 462.2 772.485 462.747 774.015H465.534C467.338 774.015 469.004 773.605 470.535 772.786C472.065 771.911 473.295 770.709 474.224 769.179C475.153 767.594 475.617 765.763 475.617 763.686C475.617 760.954 474.907 758.795 473.486 757.21C472.12 755.625 470.398 754.833 468.321 754.833C467.283 754.833 466.217 754.997 465.124 755.325C464.086 755.652 463.048 756.144 462.009 756.8C461.627 758.057 461.326 759.369 461.107 760.735C460.943 762.101 460.862 763.413 460.862 764.67ZM497.548 774.015H525.011C524.355 771.337 523.59 768.96 522.715 766.883C521.895 764.752 521.021 762.948 520.092 761.473C518.616 758.959 516.676 756.691 514.272 754.669C511.867 752.592 508.916 750.761 505.418 749.176L511.566 736.962C516.649 738.929 520.994 741.635 524.601 745.078C528.208 748.521 531.186 752.674 533.536 757.538C535.886 762.347 537.717 767.84 539.029 774.015H550.341C550.615 774.015 550.751 774.124 550.751 774.343V784.59C550.751 784.863 550.615 785 550.341 785H497.548V774.015ZM566.792 734.536C564.988 734.536 563.54 733.962 562.447 732.814C561.354 731.612 560.807 730.027 560.807 728.06C560.807 726.037 561.327 724.48 562.365 723.387C563.403 722.239 564.879 721.665 566.792 721.665C568.65 721.665 570.098 722.239 571.136 723.387C572.175 724.48 572.694 726.037 572.694 728.06C572.694 730.082 572.147 731.667 571.054 732.814C570.016 733.962 568.595 734.536 566.792 734.536ZM549.488 785C549.215 785 549.078 784.863 549.078 784.59V774.343C549.078 774.124 549.215 774.015 549.488 774.015H581.623C580.967 773.305 580.339 772.458 579.737 771.474C579.191 770.436 578.699 769.261 578.262 767.949C577.879 766.637 577.497 765.189 577.114 763.604C576.732 761.801 576.24 760.325 575.639 759.177C575.092 757.975 574.409 757.019 573.589 756.308C572.824 755.543 571.922 755.024 570.884 754.751C569.846 754.423 568.671 754.259 567.359 754.259C565.61 754.259 563.861 754.532 562.113 755.079C560.364 755.57 558.588 756.336 556.784 757.374L552.767 747.045C555.227 745.843 557.986 744.832 561.047 744.012C564.107 743.137 567.414 742.7 570.966 742.7C572.278 742.7 573.562 742.782 574.819 742.946C576.131 743.11 577.306 743.356 578.344 743.684C580.585 744.34 582.497 745.351 584.082 746.717C585.667 748.083 586.951 749.777 587.935 751.8C588.973 753.767 589.711 756.117 590.148 758.85C590.64 761.363 591.16 763.631 591.706 765.654C592.307 767.621 592.963 769.315 593.673 770.736C594.384 772.157 595.094 773.25 595.805 774.015H601.133C601.407 774.015 601.543 774.124 601.543 774.343V784.59C601.543 784.863 601.407 785 601.133 785H549.488ZM600.323 785C600.05 785 599.913 784.863 599.913 784.59V774.343C599.913 774.124 600.05 774.015 600.323 774.015H610.406V722.698H624.26V785H600.323ZM663.983 774.015H691.445C690.789 771.337 690.024 768.96 689.15 766.883C688.33 764.752 687.456 762.948 686.526 761.473C685.051 758.959 683.111 756.691 680.706 754.669C678.301 752.592 675.35 750.761 671.853 749.176L678.001 736.962C683.138 738.929 687.483 741.607 691.035 744.996C694.642 748.384 697.621 752.51 699.971 757.374C702.321 762.238 704.179 767.894 705.545 774.343V785H663.983V774.015ZM724.319 805.494C721.642 805.494 719.046 805.139 716.532 804.428C714.018 803.718 711.34 802.406 708.498 800.494L713.744 790.738C715.22 791.613 716.586 792.241 717.843 792.624C719.155 793.061 720.494 793.28 721.86 793.28C724.155 793.28 725.986 792.487 727.353 790.902C728.773 789.372 729.484 787.459 729.484 785.164V744.094H743.502V786.066C743.502 789.891 742.682 793.252 741.043 796.149C739.458 799.1 737.244 801.395 734.403 803.035C731.561 804.674 728.2 805.494 724.319 805.494ZM808.229 774.015C808.503 774.015 808.639 774.124 808.639 774.343V784.59C808.639 784.863 808.503 785 808.229 785H793.392C793.118 785 792.982 784.863 792.982 784.59V774.343C792.982 774.124 793.118 774.015 793.392 774.015H808.229ZM773.881 805.166C770.274 805.166 766.995 804.784 764.044 804.019C761.093 803.253 758.333 802.133 755.764 800.657L761.011 790.738C763.361 792.105 765.574 793.034 767.651 793.526C769.728 794.072 771.777 794.345 773.799 794.345C776.86 794.345 779.21 793.526 780.849 791.886C782.489 790.301 783.308 788.279 783.308 785.82V785H776.914C770.138 785 765 783.278 761.503 779.835C758.005 776.392 756.256 771.693 756.256 765.736C756.256 760.981 757.486 756.991 759.945 753.767C762.405 750.543 765.711 748.138 769.864 746.553C774.072 744.914 778.772 744.094 783.964 744.094H797.081V784.672C797.081 791.121 795.086 796.149 791.096 799.756C787.107 803.363 781.368 805.166 773.881 805.166ZM783.227 774.015V755.079H780.931C777.707 755.079 775.111 755.98 773.143 757.784C771.231 759.533 770.274 761.992 770.274 765.162C770.274 768.113 770.957 770.326 772.324 771.802C773.745 773.277 775.903 774.015 778.8 774.015H783.227ZM807.345 785C807.072 785 806.936 784.863 806.936 784.59V774.343C806.936 774.124 807.072 774.015 807.345 774.015H817.429V722.698H831.283V774.015H841.94C842.213 774.015 842.349 774.124 842.349 774.343V784.59C842.349 784.863 842.213 785 841.94 785H807.345ZM841.129 785C840.855 785 840.719 784.863 840.719 784.59V774.343C840.719 774.124 840.855 774.015 841.129 774.015H851.212V722.698H865.066V785H841.129ZM881.438 722.698H895.292V785H881.438V722.698Z" fill="#0B4D9B"/>
<defs>
<linearGradient id="paint0_linear_1082_3682" x1="427.5" y1="552.5" x2="499.5" y2="547" gradientUnits="userSpaceOnUse">
<stop stop-color="#EFC231"/>
<stop offset="1" stop-color="#BE9717"/>
</linearGradient>
<linearGradient id="paint1_linear_1082_3682" x1="285.5" y1="519.5" x2="409" y2="624" gradientUnits="userSpaceOnUse">
<stop stop-color="#EFC231"/>
<stop offset="0.596154" stop-color="#EFC231"/>
<stop offset="1" stop-color="#C9A224"/>
</linearGradient>
<linearGradient id="paint2_linear_1082_3682" x1="207" y1="224.5" x2="696" y2="224" gradientUnits="userSpaceOnUse">
<stop stop-color="#EFC231"/>
<stop offset="1" stop-color="#A27A2D"/>
</linearGradient>
</defs>
</svg>
