<svg width="2297" height="641" viewBox="0 0 2297 641" fill="none" xmlns="http://www.w3.org/2000/svg">
<path d="M2009 497.742C1998.75 504.549 1992 516.193 1992 529.415C1992 550.402 2009.01 567.415 2030 567.415C2045.67 567.415 2059.13 557.923 2064.94 544.375H2091.21C2084.5 571.947 2059.64 592.415 2030 592.415C1995.21 592.415 1967 564.209 1967 529.415C1967 501.984 1984.53 478.649 2009 470V497.742Z" fill="url(#paint0_linear_1082_3681)"/>
<circle cx="2279" cy="79" r="18" fill="#0B4D9B"/>
<circle cx="1791" cy="79" r="18" fill="#0B4D9B"/>
<circle cx="2035.5" cy="27.5" r="27.5" fill="#0B4D9B"/>
<path d="M2069.54 424.061C2098.97 433.195 2123.25 454.037 2136.93 481.14L2115.21 493.608C2103.9 470.322 2082.62 452.771 2056.93 446.503L2069.44 424.245L2069.54 424.061ZM2036.5 374C2097.19 374 2149.86 408.329 2176.16 458.628L2154.46 471.084C2132.49 428.285 2087.91 399 2036.5 399C1984.65 399 1939.76 428.779 1918 472.166L1896.35 459.574C1922.48 408.76 1975.43 374 2036.5 374ZM2036.5 320C2117.23 320 2187.39 365.229 2223.04 431.729L2201.34 444.182C2170.02 385.182 2107.95 345 2036.5 345C1964.73 345 1902.43 385.543 1871.24 444.976L1849.61 432.394C1885.14 365.531 1955.5 320 2036.5 320ZM2036 276C2133.17 276 2217.7 330.142 2261.06 409.905L2239.37 422.355C2200.33 350.094 2123.9 301 2036 301C1948.05 301 1871.58 350.149 1832.56 422.479L1810.94 409.902C1854.3 330.14 1938.83 276 2036 276Z" fill="#0B4D9B"/>
<path d="M2184 424.651C2193.83 421.318 2214.7 418.452 2219.5 433.651L2070.5 520.152H2035V484.652L2067.5 427.652C2079 432.652 2104.4 446.852 2114 463.652L2184 424.651ZM2058.02 494.946L2095.83 470.093C2094.73 466.849 2083.96 457.923 2078.7 453.866L2058.02 494.946Z" fill="#0B4D9B"/>
<path d="M2071.9 421.164C2116.19 436.458 2148 478.512 2148 527.999C2148 590.407 2097.41 640.999 2035 640.999C2029.91 640.999 2024.91 640.66 2020 640.009V614.724C2024.87 615.561 2029.89 615.999 2035 615.999C2083.6 615.999 2123 576.6 2123 527.999C2123 487.31 2095.39 453.072 2057.88 443.002C2058.08 443.001 2058.29 442.999 2058.5 442.999L2071.9 421.164Z" fill="#0B4D9B"/>
<path d="M1946.02 515.715C1945.38 519.992 1945.05 524.369 1945.05 528.824C1945.05 565.839 1967.9 597.514 2000.27 610.514L1986.66 631.894C1950.61 615.646 1924.62 581.046 1920.59 540H1874V516H1920.77V515.998L1939.55 516C1941.56 516 1943.73 515.898 1946.02 515.715Z" fill="url(#paint1_linear_1082_3681)"/>
<path d="M2104.5 124.5L2089.5 139.5L2137 212L2165 142.5L2186.5 209L2255 140.5L2246.5 130.5L2279.5 97.5V114L2265.5 128.5L2279.5 142.5V394C2257.67 349.666 2178.1 260.198 2034.5 256.998C1890.9 253.798 1812.67 346.998 1791.5 393.998L1791 142.5L1805.5 127.5L1791 113.5V96.5L1825 131L1816 139.5L1885 210L1906 142.5L1933.5 212L1980.5 139.5L1967.5 124.5L2034 55L2104.5 124.5ZM2008 117.871L2034.87 144.741L2061.74 117.871L2034.87 91.001L2008 117.871Z" fill="url(#paint2_linear_1082_3681)"/>
<path d="M1895.39 268.215L1894.34 266.083C1896.26 265.1 1897.36 264.332 1897.65 263.778C1897.98 263.212 1897.96 262.335 1897.58 261.148L1888.71 232.942C1888.34 231.754 1887.85 231.022 1887.26 230.746C1886.71 230.457 1885.36 230.459 1883.22 230.753L1882.86 228.404L1896.94 223.977L1897.87 226.145L1894.53 227.955C1893.81 228.349 1893.58 228.967 1893.85 229.81L1904.06 262.268L1909.15 260.602C1913.38 259.188 1915.83 258.271 1916.49 257.85C1917.05 257.466 1917.19 254.18 1916.93 247.991L1920.18 247.285C1920.42 247.924 1920.86 249.258 1921.5 251.288C1922.13 253.279 1922.75 255.988 1923.36 259.414L1895.39 268.215Z" fill="white"/>
<path d="M1992.58 243.503C1986.52 243.793 1981.76 242.153 1978.29 238.581C1974.82 234.969 1972.93 229.915 1972.62 223.418C1972.31 216.882 1973.8 211.544 1977.1 207.407C1980.4 203.229 1985.07 200.995 1991.13 200.705C1997.22 200.412 2002 202.032 2005.47 205.564C2008.93 209.055 2010.82 214.069 2011.14 220.606C2011.45 227.103 2009.96 232.48 2006.66 236.738C2003.37 240.955 1998.67 243.21 1992.58 243.503ZM1993.27 240.274C1995.43 240.17 1997.29 239.579 1998.85 238.499C2000.45 237.418 2001.66 235.973 2002.5 234.164C2004.06 230.673 2004.72 226.34 2004.47 221.167C2004.22 215.994 2002.87 211.778 2000.43 208.519C1998.02 205.258 1994.71 203.728 1990.5 203.93C1988.33 204.034 1986.45 204.627 1984.86 205.708C1983.3 206.748 1982.12 208.151 1981.32 209.918C1979.72 213.331 1979.04 217.624 1979.29 222.797C1979.53 227.93 1980.86 232.187 1983.27 235.569C1985.69 238.91 1989.02 240.478 1993.27 240.274Z" fill="white"/>
<path d="M2066.62 240.911L2066.8 238.541C2068.95 238.674 2070.29 238.575 2070.83 238.246C2071.39 237.925 2071.82 237.159 2072.1 235.947L2078.83 207.154C2079.12 205.942 2079.07 205.066 2078.71 204.526C2078.38 203.996 2077.22 203.312 2075.23 202.476L2076.11 200.271L2092.42 204.082C2096.6 205.059 2099.51 206.646 2101.14 208.841C2102.77 211.036 2103.24 213.6 2102.56 216.532C2101.87 219.464 2100.47 221.838 2098.36 223.652C2096.25 225.428 2093.64 226.466 2090.52 226.768L2090.45 227.061C2090.81 227.269 2091.14 227.8 2091.44 228.653L2096.8 243.017C2097.18 244.014 2097.61 244.733 2098.09 245.174C2098.6 245.624 2099.59 246.081 2101.05 246.545L2100.16 248.75L2091.83 246.804L2084.39 226.263L2080.58 225.372L2077.46 238.684C2077.26 239.544 2077.54 240.144 2078.28 240.483L2081.34 241.94L2080.57 244.173L2066.62 240.911ZM2081.27 222.381L2084.5 223.135C2087.59 223.857 2090.07 223.736 2091.94 222.772C2093.87 221.779 2095.25 219.483 2096.09 215.887C2097.22 211.039 2095.15 207.998 2089.87 206.765L2086.35 205.942C2085.57 205.76 2085.07 206.137 2084.85 207.076L2081.27 222.381Z" fill="white"/>
<path d="M2151.15 261.742L2151.96 259.506C2154 260.203 2155.32 260.463 2155.92 260.285C2156.55 260.127 2157.17 259.501 2157.76 258.407L2171.86 232.417C2172.46 231.323 2172.65 230.467 2172.43 229.849C2172.26 229.251 2171.32 228.285 2169.62 226.952L2171.06 225.06L2187.63 234.051C2190.66 235.697 2193.02 237.618 2194.71 239.813C2196.42 241.972 2197.43 244.233 2197.74 246.597C2198.38 251.146 2197.45 255.714 2194.97 260.301C2192.23 265.347 2188.5 269.013 2183.79 271.298C2181.42 272.476 2178.71 272.996 2175.68 272.859C2172.7 272.705 2169.66 271.786 2166.56 270.101L2151.15 261.742ZM2162.67 261.616C2162.24 262.393 2162.37 263.052 2163.03 263.596C2165.23 265.43 2166.97 266.692 2168.24 267.381C2172.16 269.507 2175.86 269.712 2179.35 267.997C2182.84 266.281 2185.84 263.094 2188.37 258.436C2189.96 255.507 2190.95 252.756 2191.34 250.182C2191.77 247.628 2191.66 245.441 2191 243.622C2189.75 240.203 2187.71 237.727 2184.89 236.195L2178.38 232.663L2162.67 261.616Z" fill="white"/>
<path d="M26.3046 487.413H64.5089V499H12.0563V389.867H26.3046V487.413ZM117.062 500.409C109.024 500.409 101.718 498.582 95.1414 494.929C88.6696 491.276 83.5548 486.109 79.797 479.428C76.1436 472.643 74.3169 464.814 74.3169 455.942C74.3169 447.174 76.1958 439.449 79.9536 432.769C83.8158 425.984 89.0349 420.817 95.6111 417.268C102.187 413.614 109.546 411.788 117.688 411.788C125.83 411.788 133.189 413.614 139.765 417.268C146.341 420.817 151.508 425.932 155.266 432.612C159.128 439.293 161.059 447.069 161.059 455.942C161.059 464.814 159.076 472.643 155.11 479.428C151.247 486.109 145.976 491.276 139.296 494.929C132.615 498.582 125.204 500.409 117.062 500.409ZM117.062 487.883C122.177 487.883 126.978 486.683 131.467 484.282C135.955 481.881 139.556 478.28 142.27 473.478C145.089 468.677 146.498 462.831 146.498 455.942C146.498 449.053 145.141 443.207 142.427 438.405C139.713 433.604 136.164 430.055 131.78 427.758C127.396 425.358 122.646 424.157 117.532 424.157C112.312 424.157 107.511 425.358 103.127 427.758C98.847 430.055 95.4023 433.604 92.7927 438.405C90.1832 443.207 88.8784 449.053 88.8784 455.942C88.8784 462.936 90.131 468.833 92.6362 473.635C95.2457 478.436 98.6904 482.038 102.97 484.439C107.25 486.735 111.947 487.883 117.062 487.883ZM194.042 427.132C196.547 422.226 200.096 418.416 204.689 415.702C209.386 412.988 215.075 411.631 221.756 411.631V426.349H217.998C202.027 426.349 194.042 435.013 194.042 452.341V499H179.793V413.197H194.042V427.132ZM232.88 455.785C232.88 447.017 234.654 439.345 238.203 432.769C241.752 426.088 246.606 420.921 252.765 417.268C259.028 413.614 266.021 411.788 273.746 411.788C280.426 411.788 286.637 413.353 292.378 416.485C298.119 419.512 302.503 423.531 305.531 428.541V383.134H319.935V499H305.531V482.873C302.712 487.988 298.537 492.215 293.005 495.555C287.472 498.791 281 500.409 273.589 500.409C265.969 500.409 259.028 498.53 252.765 494.772C246.606 491.015 241.752 485.743 238.203 478.958C234.654 472.173 232.88 464.449 232.88 455.785ZM305.531 455.942C305.531 449.47 304.226 443.833 301.616 439.032C299.007 434.23 295.458 430.577 290.969 428.071C286.585 425.462 281.731 424.157 276.408 424.157C271.084 424.157 266.23 425.41 261.846 427.915C257.462 430.42 253.965 434.074 251.356 438.875C248.746 443.677 247.441 449.314 247.441 455.785C247.441 462.361 248.746 468.103 251.356 473.009C253.965 477.81 257.462 481.516 261.846 484.125C266.23 486.631 271.084 487.883 276.408 487.883C281.731 487.883 286.585 486.631 290.969 484.125C295.458 481.516 299.007 477.81 301.616 473.009C304.226 468.103 305.531 462.414 305.531 455.942ZM400.005 389.867V499H385.757V389.867H400.005ZM466.095 411.631C476.533 411.631 484.988 414.815 491.46 421.182C497.932 427.445 501.167 436.527 501.167 448.426V499H487.076V450.462C487.076 441.902 484.936 435.378 480.656 430.89C476.376 426.297 470.531 424.001 463.12 424.001C455.604 424.001 449.602 426.349 445.114 431.046C440.729 435.744 438.537 442.581 438.537 451.558V499H424.289V413.197H438.537V425.41C441.356 421.026 445.166 417.633 449.967 415.232C454.873 412.832 460.249 411.631 466.095 411.631ZM541.822 424.94V475.514C541.822 479.689 542.709 482.664 544.484 484.439C546.258 486.109 549.337 486.944 553.722 486.944H564.212V499H551.373C543.44 499 537.49 497.173 533.523 493.52C529.557 489.866 527.574 483.864 527.574 475.514V424.94H516.457V413.197H527.574V391.59H541.822V413.197H564.212V424.94H541.822ZM659.763 452.81C659.763 455.524 659.607 458.395 659.294 461.422H590.714C591.236 469.877 594.106 476.505 599.325 481.307C604.649 486.004 611.068 488.353 618.584 488.353C624.743 488.353 629.857 486.944 633.928 484.125C638.104 481.203 641.026 477.34 642.697 472.539H658.041C655.744 480.785 651.152 487.518 644.262 492.737C637.373 497.852 628.814 500.409 618.584 500.409C610.442 500.409 603.135 498.582 596.663 494.929C590.296 491.276 585.286 486.109 581.632 479.428C577.979 472.643 576.152 464.814 576.152 455.942C576.152 447.069 577.927 439.293 581.476 432.612C585.025 425.932 589.983 420.817 596.35 417.268C602.822 413.614 610.233 411.788 618.584 411.788C626.726 411.788 633.928 413.562 640.191 417.111C646.454 420.66 651.256 425.566 654.596 431.829C658.041 437.988 659.763 444.982 659.763 452.81ZM645.045 449.835C645.045 444.407 643.845 439.762 641.444 435.9C639.043 431.934 635.755 428.959 631.58 426.975C627.509 424.888 622.968 423.844 617.958 423.844C610.755 423.844 604.597 426.14 599.482 430.733C594.471 435.326 591.601 441.694 590.87 449.835H645.045ZM692.819 427.132C695.324 422.226 698.873 418.416 703.466 415.702C708.163 412.988 713.852 411.631 720.533 411.631V426.349H716.775C700.804 426.349 692.819 435.013 692.819 452.341V499H678.571V413.197H692.819V427.132ZM778.786 411.631C789.224 411.631 797.679 414.815 804.151 421.182C810.623 427.445 813.859 436.527 813.859 448.426V499H799.767V450.462C799.767 441.902 797.627 435.378 793.347 430.89C789.068 426.297 783.222 424.001 775.811 424.001C768.295 424.001 762.293 426.349 757.805 431.046C753.421 435.744 751.229 442.581 751.229 451.558V499H736.98V413.197H751.229V425.41C754.047 421.026 757.857 417.633 762.659 415.232C767.565 412.832 772.941 411.631 778.786 411.631ZM915.421 452.81C915.421 455.524 915.264 458.395 914.951 461.422H846.371C846.893 469.877 849.764 476.505 854.983 481.307C860.307 486.004 866.726 488.353 874.242 488.353C880.4 488.353 885.515 486.944 889.586 484.125C893.761 481.203 896.684 477.34 898.354 472.539H913.699C911.402 480.785 906.809 487.518 899.92 492.737C893.031 497.852 884.471 500.409 874.242 500.409C866.1 500.409 858.793 498.582 852.321 494.929C845.954 491.276 840.943 486.109 837.29 479.428C833.637 472.643 831.81 464.814 831.81 455.942C831.81 447.069 833.584 439.293 837.133 432.612C840.682 425.932 845.641 420.817 852.008 417.268C858.48 413.614 865.891 411.788 874.242 411.788C882.384 411.788 889.586 413.562 895.849 417.111C902.112 420.66 906.914 425.566 910.254 431.829C913.699 437.988 915.421 444.982 915.421 452.81ZM900.703 449.835C900.703 444.407 899.502 439.762 897.102 435.9C894.701 431.934 891.413 428.959 887.237 426.975C883.166 424.888 878.626 423.844 873.615 423.844C866.413 423.844 860.254 426.14 855.14 430.733C850.129 435.326 847.259 441.694 846.528 449.835H900.703ZM951.608 424.94V475.514C951.608 479.689 952.495 482.664 954.27 484.439C956.044 486.109 959.124 486.944 963.508 486.944H973.998V499H961.159C953.226 499 947.276 497.173 943.31 493.52C939.343 489.866 937.36 483.864 937.36 475.514V424.94H926.243V413.197H937.36V391.59H951.608V413.197H973.998V424.94H951.608ZM1067.61 500.096C1060.41 500.096 1053.93 498.843 1048.19 496.338C1042.56 493.729 1038.12 490.18 1034.88 485.691C1031.65 481.098 1029.98 475.827 1029.87 469.877H1045.06C1045.58 474.992 1047.67 479.324 1051.32 482.873C1055.08 486.317 1060.51 488.04 1067.61 488.04C1074.39 488.04 1079.72 486.37 1083.58 483.029C1087.55 479.585 1089.53 475.201 1089.53 469.877C1089.53 465.702 1088.38 462.309 1086.08 459.7C1083.79 457.09 1080.92 455.107 1077.47 453.75C1074.03 452.393 1069.38 450.931 1063.54 449.366C1056.33 447.487 1050.54 445.608 1046.16 443.729C1041.88 441.85 1038.17 438.927 1035.04 434.961C1032.01 430.89 1030.5 425.462 1030.5 418.677C1030.5 412.727 1032.01 407.456 1035.04 402.863C1038.07 398.27 1042.3 394.721 1047.72 392.216C1053.26 389.711 1059.57 388.458 1066.67 388.458C1076.9 388.458 1085.25 391.015 1091.72 396.13C1098.3 401.245 1102 408.03 1102.84 416.485H1087.18C1086.66 412.31 1084.47 408.656 1080.6 405.525C1076.74 402.289 1071.63 400.671 1065.26 400.671C1059.31 400.671 1054.46 402.237 1050.7 405.368C1046.94 408.395 1045.06 412.675 1045.06 418.207C1045.06 422.174 1046.16 425.41 1048.35 427.915C1050.65 430.42 1053.41 432.351 1056.65 433.708C1059.99 434.961 1064.63 436.422 1070.58 438.092C1077.79 440.076 1083.58 442.059 1087.96 444.042C1092.35 445.921 1096.1 448.896 1099.24 452.967C1102.37 456.933 1103.93 462.361 1103.93 469.251C1103.93 474.574 1102.52 479.585 1099.71 484.282C1096.89 488.979 1092.71 492.789 1087.18 495.712C1081.65 498.635 1075.12 500.096 1067.61 500.096ZM1203.19 452.81C1203.19 455.524 1203.03 458.395 1202.72 461.422H1134.14C1134.66 469.877 1137.53 476.505 1142.75 481.307C1148.07 486.004 1154.49 488.353 1162.01 488.353C1168.17 488.353 1173.28 486.944 1177.35 484.125C1181.53 481.203 1184.45 477.34 1186.12 472.539H1201.47C1199.17 480.785 1194.58 487.518 1187.69 492.737C1180.8 497.852 1172.24 500.409 1162.01 500.409C1153.87 500.409 1146.56 498.582 1140.09 494.929C1133.72 491.276 1128.71 486.109 1125.06 479.428C1121.4 472.643 1119.58 464.814 1119.58 455.942C1119.58 447.069 1121.35 439.293 1124.9 432.612C1128.45 425.932 1133.41 420.817 1139.78 417.268C1146.25 413.614 1153.66 411.788 1162.01 411.788C1170.15 411.788 1177.35 413.562 1183.62 417.111C1189.88 420.66 1194.68 425.566 1198.02 431.829C1201.47 437.988 1203.19 444.982 1203.19 452.81ZM1188.47 449.835C1188.47 444.407 1187.27 439.762 1184.87 435.9C1182.47 431.934 1179.18 428.959 1175.01 426.975C1170.93 424.888 1166.39 423.844 1161.38 423.844C1154.18 423.844 1148.02 426.14 1142.91 430.733C1137.9 435.326 1135.03 441.694 1134.3 449.835H1188.47ZM1236.24 427.132C1238.75 422.226 1242.3 418.416 1246.89 415.702C1251.59 412.988 1257.28 411.631 1263.96 411.631V426.349H1260.2C1244.23 426.349 1236.24 435.013 1236.24 452.341V499H1222V413.197H1236.24V427.132ZM1312.35 485.848L1338.97 413.197H1354.15L1320.49 499H1303.89L1270.23 413.197H1285.57L1312.35 485.848ZM1375.53 399.262C1372.82 399.262 1370.52 398.322 1368.64 396.443C1366.76 394.564 1365.83 392.268 1365.83 389.554C1365.83 386.84 1366.76 384.544 1368.64 382.665C1370.52 380.786 1372.82 379.846 1375.53 379.846C1378.14 379.846 1380.33 380.786 1382.11 382.665C1383.99 384.544 1384.93 386.84 1384.93 389.554C1384.93 392.268 1383.99 394.564 1382.11 396.443C1380.33 398.322 1378.14 399.262 1375.53 399.262ZM1382.42 413.197V499H1368.17V413.197H1382.42ZM1401.38 455.942C1401.38 447.069 1403.16 439.345 1406.71 432.769C1410.25 426.088 1415.16 420.921 1421.42 417.268C1427.79 413.614 1435.05 411.788 1443.19 411.788C1453.73 411.788 1462.39 414.345 1469.18 419.46C1476.07 424.575 1480.61 431.673 1482.8 440.754H1467.46C1466 435.535 1463.13 431.412 1458.85 428.385C1454.67 425.358 1449.45 423.844 1443.19 423.844C1435.05 423.844 1428.47 426.662 1423.46 432.299C1418.45 437.831 1415.94 445.712 1415.94 455.942C1415.94 466.276 1418.45 474.261 1423.46 479.898C1428.47 485.535 1435.05 488.353 1443.19 488.353C1449.45 488.353 1454.67 486.892 1458.85 483.969C1463.02 481.046 1465.89 476.871 1467.46 471.443H1482.8C1480.5 480.211 1475.91 487.257 1469.02 492.58C1462.13 497.8 1453.52 500.409 1443.19 500.409C1435.05 500.409 1427.79 498.582 1421.42 494.929C1415.16 491.276 1410.25 486.109 1406.71 479.428C1403.16 472.748 1401.38 464.919 1401.38 455.942ZM1580.1 452.81C1580.1 455.524 1579.94 458.395 1579.63 461.422H1511.05C1511.57 469.877 1514.44 476.505 1519.66 481.307C1524.99 486.004 1531.41 488.353 1538.92 488.353C1545.08 488.353 1550.19 486.944 1554.27 484.125C1558.44 481.203 1561.36 477.34 1563.03 472.539H1578.38C1576.08 480.785 1571.49 487.518 1564.6 492.737C1557.71 497.852 1549.15 500.409 1538.92 500.409C1530.78 500.409 1523.47 498.582 1517 494.929C1510.63 491.276 1505.62 486.109 1501.97 479.428C1498.32 472.643 1496.49 464.814 1496.49 455.942C1496.49 447.069 1498.26 439.293 1501.81 432.612C1505.36 425.932 1510.32 420.817 1516.69 417.268C1523.16 413.614 1530.57 411.788 1538.92 411.788C1547.06 411.788 1554.27 413.562 1560.53 417.111C1566.79 420.66 1571.59 425.566 1574.93 431.829C1578.38 437.988 1580.1 444.982 1580.1 452.81ZM1565.38 449.835C1565.38 444.407 1564.18 439.762 1561.78 435.9C1559.38 431.934 1556.09 428.959 1551.92 426.975C1547.85 424.888 1543.31 423.844 1538.29 423.844C1531.09 423.844 1524.93 426.14 1519.82 430.733C1514.81 435.326 1511.94 441.694 1511.21 449.835H1565.38ZM1629.28 500.409C1622.71 500.409 1616.81 499.313 1611.59 497.121C1606.37 494.825 1602.25 491.693 1599.22 487.727C1596.19 483.656 1594.52 479.011 1594.21 473.791H1608.93C1609.35 478.071 1611.33 481.568 1614.88 484.282C1618.53 486.996 1623.28 488.353 1629.13 488.353C1634.55 488.353 1638.83 487.152 1641.97 484.752C1645.1 482.351 1646.66 479.324 1646.66 475.67C1646.66 471.913 1644.99 469.146 1641.65 467.372C1638.31 465.493 1633.15 463.666 1626.15 461.892C1619.78 460.222 1614.57 458.551 1610.49 456.881C1606.53 455.107 1603.08 452.549 1600.16 449.209C1597.34 445.764 1595.93 441.276 1595.93 435.744C1595.93 431.36 1597.24 427.341 1599.85 423.687C1602.46 420.034 1606.16 417.163 1610.96 415.076C1615.77 412.884 1621.25 411.788 1627.4 411.788C1636.9 411.788 1644.58 414.189 1650.42 418.99C1656.27 423.792 1659.4 430.368 1659.82 438.719H1645.57C1645.25 434.23 1643.43 430.629 1640.09 427.915C1636.85 425.201 1632.47 423.844 1626.93 423.844C1621.82 423.844 1617.75 424.94 1614.72 427.132C1611.69 429.324 1610.18 432.195 1610.18 435.744C1610.18 438.562 1611.07 440.911 1612.84 442.79C1614.72 444.564 1617.02 446.025 1619.73 447.174C1622.55 448.217 1626.41 449.418 1631.32 450.775C1637.48 452.445 1642.49 454.115 1646.35 455.785C1650.21 457.351 1653.5 459.752 1656.21 462.988C1659.03 466.224 1660.49 470.451 1660.6 475.67C1660.6 480.368 1659.29 484.595 1656.68 488.353C1654.07 492.111 1650.37 495.086 1645.57 497.278C1640.87 499.365 1635.44 500.409 1629.28 500.409Z" fill="#EAC02E"/>
<path d="M52.2692 206.969C48.9038 206.969 46.3032 205.898 44.4676 203.757C42.5299 201.615 41.5611 198.811 41.5611 195.343C41.5611 191.876 42.5299 189.071 44.4676 186.93C46.3032 184.788 48.9038 183.717 52.2692 183.717C55.6346 183.717 58.2862 184.788 60.2239 186.93C62.0595 188.969 62.9774 191.774 62.9774 195.343C62.9774 199.015 62.0085 201.87 60.0709 203.91C58.1332 205.949 55.5327 206.969 52.2692 206.969ZM80.4164 206.969C77.153 206.969 74.5524 205.949 72.6147 203.91C70.6771 201.768 69.7082 198.913 69.7082 195.343C69.7082 191.774 70.6771 188.969 72.6147 186.93C74.5524 184.788 77.153 183.717 80.4164 183.717C83.7818 183.717 86.3824 184.737 88.2181 186.777C90.1557 188.816 91.1246 191.672 91.1246 195.343C91.1246 198.913 90.1047 201.768 88.0651 203.91C86.1274 205.949 83.5778 206.969 80.4164 206.969ZM40.997 275C31.4106 275 23.8129 272.246 18.2039 266.739C12.6968 261.232 9.94329 253.584 9.94329 243.793C9.94329 241.04 10.1473 238.286 10.5552 235.533C11.0651 232.677 11.728 229.924 12.5438 227.272C13.3597 224.621 14.2776 222.275 15.2974 220.235H38.0905C37.3766 223.397 36.7647 226.609 36.2548 229.873C35.8469 233.136 35.6429 236.4 35.6429 239.663C35.6429 244.354 36.9177 248.026 39.4672 250.677C42.0168 253.227 45.5862 254.502 50.1754 254.502H98.3621V198.666H124.215V254.502H143.948C144.458 254.502 144.713 254.705 144.713 255.113V274.235C144.713 274.745 144.458 275 143.948 275H40.997ZM170.157 177.428C166.792 177.428 164.089 176.357 162.049 174.216C160.01 171.972 158.99 169.015 158.99 165.343C158.99 161.57 159.959 158.663 161.896 156.624C163.834 154.482 166.588 153.411 170.157 153.411C173.624 153.411 176.327 154.482 178.265 156.624C180.202 158.663 181.171 161.57 181.171 165.343C181.171 169.117 180.151 172.074 178.112 174.216C176.174 176.357 173.522 177.428 170.157 177.428ZM142.349 275C141.839 275 141.584 274.745 141.584 274.235V255.113C141.584 254.705 141.839 254.502 142.349 254.502H161.165V198.666H187.018V275H142.349ZM259.844 275V276.989C259.844 284.127 258.314 290.399 255.255 295.804C252.297 301.311 248.116 305.595 242.711 308.654C237.408 311.714 231.136 313.243 223.895 313.243C219 313.243 214.207 312.581 209.515 311.255C204.824 309.929 199.827 307.481 194.524 303.912L204.314 285.708C207.068 287.34 209.668 288.513 212.116 289.227C214.564 290.042 217.062 290.45 219.612 290.45C223.793 290.45 227.158 288.972 229.708 286.014C232.36 283.159 233.685 279.589 233.685 275.306V198.666H259.844V254.502H280.036C280.546 254.502 280.801 254.705 280.801 255.113V274.235C280.801 274.745 280.546 275 280.036 275H259.844ZM297.266 171.969C293.901 171.969 291.3 170.898 289.465 168.757C287.527 166.615 286.558 163.811 286.558 160.343C286.558 156.876 287.527 154.071 289.465 151.93C291.3 149.788 293.901 148.717 297.266 148.717C300.632 148.717 303.283 149.788 305.221 151.93C307.057 153.969 307.974 156.774 307.974 160.343C307.974 164.015 307.006 166.87 305.068 168.91C303.13 170.949 300.53 171.969 297.266 171.969ZM325.413 171.969C322.15 171.969 319.549 170.949 317.612 168.91C315.674 166.768 314.705 163.913 314.705 160.343C314.705 156.774 315.674 153.969 317.612 151.93C319.549 149.788 322.15 148.717 325.413 148.717C328.779 148.717 331.379 149.737 333.215 151.777C335.153 153.816 336.122 156.672 336.122 160.343C336.122 163.913 335.102 166.768 333.062 168.91C331.124 170.949 328.575 171.969 325.413 171.969ZM278.442 275C277.932 275 277.677 274.745 277.677 274.235V255.113C277.677 254.705 277.932 254.502 278.442 254.502H301.847V198.666H327.7V254.502H350.646C351.156 254.502 351.411 254.705 351.411 255.113V274.235C351.411 274.745 351.156 275 350.646 275H278.442ZM376.911 177.428C373.545 177.428 370.843 176.357 368.803 174.216C366.763 171.972 365.744 169.015 365.744 165.343C365.744 161.57 366.712 158.663 368.65 156.624C370.588 154.482 373.341 153.411 376.911 153.411C380.378 153.411 383.081 154.482 385.018 156.624C386.956 158.663 387.925 161.57 387.925 165.343C387.925 169.117 386.905 172.074 384.865 174.216C382.928 176.357 380.276 177.428 376.911 177.428ZM349.103 275C348.593 275 348.338 274.745 348.338 274.235V255.113C348.338 254.705 348.593 254.502 349.103 254.502H367.919V198.666H393.771V275H349.103ZM425.057 313.549L434.235 312.173C431.992 311.051 430.207 309.572 428.881 307.736C427.555 305.901 426.892 303.81 426.892 301.464C426.892 297.181 428.473 293.714 431.635 291.062C434.694 288.411 438.875 287.085 444.178 287.085C446.83 287.085 449.278 287.391 451.521 288.003C453.765 288.615 455.753 289.431 457.487 290.45L454.122 298.558C452.592 297.844 451.113 297.283 449.685 296.875C448.258 296.569 446.932 296.416 445.708 296.416C443.567 296.416 441.833 297.079 440.507 298.405C439.181 299.833 438.518 301.566 438.518 303.606C438.518 305.136 438.926 306.462 439.742 307.583C440.456 308.705 441.578 309.674 443.108 310.49C445.147 310.082 447.034 309.725 448.768 309.419C450.603 309.215 452.286 309.011 453.816 308.807C455.447 308.603 456.926 308.501 458.252 308.501V318.292C456.212 318.496 453.51 318.75 450.144 319.056C446.881 319.464 443.516 319.872 440.048 320.28C436.581 320.688 433.47 321.045 430.717 321.351C427.963 321.759 426.077 322.065 425.057 322.269V313.549ZM439.827 256.796L419.482 179.391H446.558L464.915 256.949L439.827 256.796ZM465.37 254.502C469.857 254.502 473.172 253.125 475.313 250.371C477.455 247.618 478.526 243.079 478.526 236.757V158.74H504.531V238.592C504.531 249.606 501.523 258.428 495.506 265.057C489.591 271.686 481.279 275 470.571 275H413.818V254.502H465.37ZM533.376 158.74H559.229V275H533.376V158.74ZM675.368 198.969C672.003 198.969 669.402 197.898 667.567 195.757C665.629 193.615 664.66 190.811 664.66 187.343C664.66 183.876 665.629 181.071 667.567 178.93C669.402 176.788 672.003 175.717 675.368 175.717C678.734 175.717 681.385 176.788 683.323 178.93C685.159 180.969 686.077 183.774 686.077 187.343C686.077 191.015 685.108 193.87 683.17 195.91C681.232 197.949 678.632 198.969 675.368 198.969ZM703.516 198.969C700.252 198.969 697.652 197.949 695.714 195.91C693.776 193.768 692.807 190.913 692.807 187.343C692.807 183.774 693.776 180.969 695.714 178.93C697.652 176.788 700.252 175.717 703.516 175.717C706.881 175.717 709.482 176.737 711.317 178.777C713.255 180.816 714.224 183.672 714.224 187.343C714.224 190.913 713.204 193.768 711.164 195.91C709.227 197.949 706.677 198.969 703.516 198.969ZM667.532 275C657.946 275 650.348 272.246 644.739 266.739C639.232 261.232 636.478 253.584 636.478 243.793C636.478 241.04 636.682 238.286 637.09 235.533C637.6 232.677 638.263 229.924 639.079 227.272C639.895 224.621 640.813 222.275 641.832 220.235H664.626C663.912 223.397 663.3 226.609 662.79 229.873C662.382 233.136 662.178 236.4 662.178 239.663C662.178 244.354 663.453 248.026 666.002 250.677C668.654 253.227 672.223 254.502 676.71 254.502H724.897V198.666H750.75V275H667.532ZM823.789 254.502C824.299 254.502 824.554 254.705 824.554 255.113V274.235C824.554 274.745 824.299 275 823.789 275H779.12V158.74H804.973V254.502H823.789ZM822.216 275C821.706 275 821.451 274.745 821.451 274.235V255.113C821.451 254.705 821.706 254.502 822.216 254.502H840.114C838.686 251.748 837.513 248.689 836.596 245.323C835.678 241.958 835.219 238.286 835.219 234.309C835.219 230.026 835.882 225.335 837.207 220.235C838.533 215.136 840.522 210.598 843.173 206.621C848.273 203.663 853.525 201.42 858.93 199.89C864.437 198.36 869.587 197.595 874.38 197.595C878.153 197.595 881.672 198.003 884.935 198.819C888.301 199.533 891.462 200.604 894.42 202.032C900.437 205.091 905.128 209.476 908.493 215.187C911.859 220.796 913.541 227.221 913.541 234.462C913.541 238.439 913.031 242.264 912.012 245.935C910.992 249.504 909.411 253.023 907.269 256.49C903.598 262.099 898.397 266.586 891.666 269.952C884.935 273.317 877.287 275 868.72 275H822.216ZM860.001 237.063C860.001 239.918 860.306 242.825 860.918 245.782C861.632 248.74 862.499 251.646 863.519 254.502H868.72C872.085 254.502 875.196 253.737 878.051 252.207C880.907 250.575 883.202 248.332 884.935 245.476C886.669 242.519 887.536 239.102 887.536 235.227C887.536 230.128 886.21 226.099 883.559 223.142C881.009 220.184 877.796 218.706 873.921 218.706C871.983 218.706 869.995 219.012 867.955 219.623C866.018 220.235 864.08 221.153 862.142 222.377C861.428 224.723 860.867 227.17 860.459 229.72C860.154 232.269 860.001 234.717 860.001 237.063ZM928.461 254.502H979.707C978.483 249.504 977.056 245.068 975.424 241.193C973.894 237.215 972.263 233.85 970.529 231.097C967.775 226.405 964.155 222.173 959.668 218.4C955.18 214.524 949.673 211.108 943.147 208.15L954.62 185.357C964.104 189.029 972.212 194.077 978.942 200.502C985.673 206.927 991.231 214.677 995.617 223.754C1000 232.728 1003.42 242.977 1005.87 254.502H1026.98C1027.49 254.502 1027.74 254.705 1027.74 255.113V274.235C1027.74 274.745 1027.49 275 1026.98 275H928.461V254.502ZM1057.67 179.428C1054.31 179.428 1051.61 178.357 1049.57 176.216C1047.53 173.972 1046.51 171.015 1046.51 167.343C1046.51 163.57 1047.48 160.663 1049.41 158.624C1051.35 156.482 1054.1 155.411 1057.67 155.411C1061.14 155.411 1063.84 156.482 1065.78 158.624C1067.72 160.663 1068.69 163.57 1068.69 167.343C1068.69 171.117 1067.67 174.074 1065.63 176.216C1063.69 178.357 1061.04 179.428 1057.67 179.428ZM1025.38 275C1024.87 275 1024.62 274.745 1024.62 274.235V255.113C1024.62 254.705 1024.87 254.502 1025.38 254.502H1085.35C1084.13 253.176 1082.95 251.595 1081.83 249.759C1080.81 247.822 1079.89 245.629 1079.08 243.181C1078.36 240.734 1077.65 238.031 1076.94 235.074C1076.22 231.708 1075.3 228.955 1074.18 226.813C1073.16 224.57 1071.89 222.785 1070.36 221.459C1068.93 220.031 1067.25 219.063 1065.31 218.553C1063.37 217.941 1061.18 217.635 1058.73 217.635C1055.47 217.635 1052.21 218.145 1048.94 219.165C1045.68 220.082 1042.36 221.51 1039 223.448L1031.5 204.173C1036.09 201.93 1041.24 200.043 1046.95 198.513C1052.66 196.881 1058.83 196.066 1065.46 196.066C1067.91 196.066 1070.31 196.219 1072.65 196.524C1075.1 196.83 1077.29 197.289 1079.23 197.901C1083.41 199.125 1086.98 201.012 1089.94 203.561C1092.9 206.111 1095.29 209.272 1097.13 213.046C1099.07 216.717 1100.44 221.102 1101.26 226.201C1102.18 230.893 1103.15 235.125 1104.17 238.898C1105.29 242.57 1106.51 245.731 1107.84 248.383C1109.16 251.034 1110.49 253.074 1111.81 254.502H1121.76C1122.27 254.502 1122.52 254.705 1122.52 255.113V274.235C1122.52 274.745 1122.27 275 1121.76 275H1025.38ZM1120.25 275C1119.74 275 1119.48 274.745 1119.48 274.235V255.113C1119.48 254.705 1119.74 254.502 1120.25 254.502H1139.06V158.74H1164.91V275H1120.25ZM1239.04 254.502H1290.29C1289.06 249.504 1287.63 245.068 1286 241.193C1284.47 237.215 1282.84 233.85 1281.11 231.097C1278.35 226.405 1274.73 222.173 1270.25 218.4C1265.76 214.524 1260.25 211.108 1253.73 208.15L1265.2 185.357C1274.78 189.029 1282.89 194.026 1289.52 200.349C1296.25 206.672 1301.81 214.371 1306.2 223.448C1310.58 232.524 1314.05 243.079 1316.6 255.113V275H1239.04V254.502ZM1351.63 313.243C1346.63 313.243 1341.79 312.581 1337.1 311.255C1332.41 309.929 1327.41 307.481 1322.11 303.912L1331.9 285.708C1334.65 287.34 1337.2 288.513 1339.55 289.227C1341.99 290.042 1344.49 290.45 1347.04 290.45C1351.33 290.45 1354.74 288.972 1357.29 286.014C1359.94 283.159 1361.27 279.589 1361.27 275.306V198.666H1387.43V276.989C1387.43 284.127 1385.9 290.399 1382.84 295.804C1379.88 301.311 1375.75 305.595 1370.45 308.654C1365.14 311.714 1358.87 313.243 1351.63 313.243ZM1508.21 254.502C1508.72 254.502 1508.98 254.705 1508.98 255.113V274.235C1508.98 274.745 1508.72 275 1508.21 275H1480.53C1480.02 275 1479.76 274.745 1479.76 274.235V255.113C1479.76 254.705 1480.02 254.502 1480.53 254.502H1508.21ZM1444.12 312.632C1437.39 312.632 1431.27 311.918 1425.76 310.49C1420.25 309.062 1415.1 306.972 1410.31 304.218L1420.1 285.708C1424.49 288.258 1428.62 289.991 1432.49 290.909C1436.37 291.929 1440.19 292.439 1443.96 292.439C1449.68 292.439 1454.06 290.909 1457.12 287.85C1460.18 284.892 1461.71 281.119 1461.71 276.53V275H1449.78C1437.13 275 1427.55 271.788 1421.02 265.363C1414.49 258.938 1411.23 250.167 1411.23 239.051C1411.23 230.179 1413.52 222.734 1418.11 216.717C1422.7 210.7 1428.87 206.213 1436.62 203.255C1444.47 200.196 1453.25 198.666 1462.93 198.666H1487.41V274.388C1487.41 286.422 1483.69 295.804 1476.24 302.535C1468.8 309.266 1458.09 312.632 1444.12 312.632ZM1461.56 254.502V219.165H1457.27C1451.26 219.165 1446.41 220.847 1442.74 224.213C1439.17 227.476 1437.39 232.065 1437.39 237.98C1437.39 243.487 1438.66 247.618 1441.21 250.371C1443.86 253.125 1447.89 254.502 1453.3 254.502H1461.56ZM1506.56 275C1506.05 275 1505.8 274.745 1505.8 274.235V255.113C1505.8 254.705 1506.05 254.502 1506.56 254.502H1525.38V158.74H1551.23V254.502H1571.12C1571.63 254.502 1571.88 254.705 1571.88 255.113V274.235C1571.88 274.745 1571.63 275 1571.12 275H1506.56ZM1569.61 275C1569.1 275 1568.84 274.745 1568.84 274.235V255.113C1568.84 254.705 1569.1 254.502 1569.61 254.502H1588.42V158.74H1614.27V275H1569.61ZM1644.83 158.74H1670.68V275H1644.83V158.74Z" fill="#0B4D99"/>
<defs>
<linearGradient id="paint0_linear_1082_3681" x1="2011.5" y1="552.5" x2="2083.5" y2="547" gradientUnits="userSpaceOnUse">
<stop stop-color="#EFC231"/>
<stop offset="1" stop-color="#BE9717"/>
</linearGradient>
<linearGradient id="paint1_linear_1082_3681" x1="1869.5" y1="519.5" x2="1993" y2="624" gradientUnits="userSpaceOnUse">
<stop stop-color="#EFC231"/>
<stop offset="0.596154" stop-color="#EFC231"/>
<stop offset="1" stop-color="#C9A224"/>
</linearGradient>
<linearGradient id="paint2_linear_1082_3681" x1="1791" y1="224.5" x2="2280" y2="224" gradientUnits="userSpaceOnUse">
<stop stop-color="#EFC231"/>
<stop offset="1" stop-color="#A27A2D"/>
</linearGradient>
</defs>
</svg>
